<svg width="586" height="339" viewBox="0 0 586 339" fill="none" xmlns="http://www.w3.org/2000/svg">
<path d="M86.6324 197.766C93.6047 125.683 112.269 69.7432 142.625 29.8938C146.299 25.1204 146.514 20.0521 143.215 14.7156C143.376 14.8765 139.756 10.7467 132.381 2.35315C129.7 -0.784385 127.367 -0.784385 125.329 2.35315C124.31 3.90852 123.559 5.81249 123.103 8.01145C93.6851 78.6731 76.3884 137.804 71.2128 185.403C71.1324 185.886 71.0519 186.503 70.9715 187.28C70.891 188.219 70.8106 188.862 70.7301 189.157C69.4698 194.172 68.263 197.9 67.0831 200.34C59.0113 217.047 51.2881 226.647 43.9136 229.168C38.2016 231.045 33.4551 227.291 29.674 217.878C26.0001 208.787 24.6593 198.382 25.6783 186.717C27.3141 166.712 31.4439 151.185 38.0407 140.137C43.2968 131.207 48.4724 127.05 53.5675 127.667C56.7051 128.15 58.0727 132.306 57.6973 140.137C57.295 149.067 57.3755 153.867 57.9386 154.484C59.7353 157.058 62.417 157.541 65.93 155.905C70.0061 154.028 72.1782 149.63 72.3928 142.738C72.4732 139.064 70.891 135.176 67.6731 131.1C63.2751 125.602 56.9732 122.17 48.7406 120.748C39.5693 119.193 30.4248 123.296 21.334 133.111C12.4577 142.523 6.39719 154.135 3.09875 167.919C-0.816472 184.304 -1.031 199.83 2.50878 214.499C7.0676 233.807 17.6333 243.166 34.2596 242.63C46.3271 242.147 57.59 235.094 68.0217 221.445C65.9836 252.9 66.1445 279.288 68.5044 300.607C70.5424 318.816 73.4118 328.791 77.0857 330.615C90.5744 337.212 98.3512 339.893 100.389 338.74C102.052 337.802 101.301 331.929 98.1635 321.095C86.391 280.468 82.5562 239.385 86.6324 197.792V197.766Z" fill="#8DC63F"/>
<path d="M155.07 102.138C158.824 100.341 161.694 97.3107 163.651 93.0737C165.77 88.5148 165.582 84.5996 163.061 81.3012C160.54 78.0832 156.893 76.206 152.12 75.6429C147.561 75.187 144.477 75.9915 142.815 78.11C135.44 87.9249 134.019 94.8167 138.578 98.8124C143.834 103.613 149.331 104.685 155.043 102.111L155.07 102.138Z" fill="#8DC63F"/>
<path d="M585.42 215.653C584.723 215.492 582.632 216.94 579.199 219.997C574.345 224.395 568.767 228.042 562.492 230.938C553.938 234.773 546.429 235.953 539.913 234.451C532.458 232.654 532.055 219.273 538.733 194.334C543.131 178.029 548.548 162.422 554.957 147.512C557.317 142.095 558.014 137.107 557.075 132.575C556.217 128.579 554.26 125.388 551.202 123.055C549.62 121.339 547.073 120.481 543.56 120.481C540.825 120.481 538.062 120.91 535.327 121.768C521.758 125.844 507.411 136.276 492.26 153.063C484.724 161.456 478.583 169.421 473.783 176.956C475.58 172.639 477.671 164.353 480.005 152.124C482.364 140.352 483.41 133.031 483.196 130.135C483.035 127.855 481.184 127.131 477.671 127.909C476.492 128.15 473.327 129.25 468.152 131.207C465.631 132.146 463.807 133.567 462.627 135.444C461.689 136.866 461.287 138.26 461.447 139.681C462.922 157.166 461.608 173.926 457.452 189.909C456.111 195.004 454.234 200.957 451.793 207.795C448.897 216.109 447.154 221.07 446.618 222.625C445.787 225.36 445.465 227.64 445.572 229.544C436.776 233.057 427.605 233.727 418.031 231.555C408.538 229.356 402.183 223 398.965 212.488C397.302 207.232 396.605 202.191 396.846 197.31C421.544 179.263 436.508 162.77 441.657 147.78C443.936 141.183 443.963 135.632 441.764 131.073C439.565 126.595 435.462 123.511 429.402 121.768C423.609 120.132 417.549 120.32 411.274 122.358C405.24 124.315 399.582 127.775 394.326 132.709C383.358 143.141 376.761 156.549 374.428 172.88C372.658 171.218 370.995 169.904 369.493 168.965C369.574 161.51 368.501 153.975 366.329 146.385C361.931 131.1 354.02 123.055 342.57 122.277C330.636 121.419 319.668 127.346 309.639 140.03C304.624 146.466 300.789 152.929 298.108 159.445C295.453 143.06 293.12 132.629 291.162 128.15C288.186 121.097 283.546 119.006 277.271 121.929C276.091 122.492 274.751 122.68 273.276 122.519L270.916 122.17C270.46 122.331 270.487 123.082 271.023 124.396C271.506 125.576 272.793 128.231 274.911 132.387C278.371 139.279 280.275 148.853 280.677 161.081C280.918 165.64 280.704 175.83 280.087 191.679C280.007 193.502 279.846 195.379 279.551 197.364C279.095 197.578 278.612 197.927 278.076 198.517C272.123 204.39 264.694 209.029 255.845 212.408C251.206 214.124 246.674 214.419 242.195 213.239C239.996 212.676 238.28 211.952 237.02 211.013C242.437 201.306 245.601 188.675 246.539 173.148C247.398 158.078 245.842 148.906 241.847 145.608C236.751 141.451 232.112 140.271 227.956 142.095C222.083 144.616 217.444 152.956 214.065 167.142C210.847 180.55 211.41 192.483 215.7 202.915C217.819 208.09 220.286 211.979 223.102 214.553C222.244 217.932 220.662 221.257 218.409 224.556C213.931 231.314 208.058 234.666 200.764 234.666C196.687 234.666 193.309 232.547 190.654 228.31C188.374 224.475 186.819 219.166 185.961 212.435C184.379 199.026 185.639 185.565 189.715 172.076C193.791 158.507 199.235 147.887 206.073 140.191C211.732 133.674 216.451 130.859 220.313 131.717C222.11 132.119 224.282 133.004 226.776 134.425C228.197 135.203 229.296 135.203 230.074 134.425C230.61 133.862 230.61 132.897 230.074 131.475C229.457 130.001 228.358 128.499 226.776 126.997C222.539 123.001 216.88 120.829 209.828 120.534C199.959 120.159 190.815 124.155 182.421 132.521C171.668 143.275 164.588 159.472 161.129 181.113C158.42 198.195 159.6 211.791 164.588 221.955C157.401 227.586 152.038 231.233 148.525 232.869C141.472 236.328 134.446 237.267 127.474 235.685C120.663 234.049 121.118 217.181 128.895 185.082C135.412 158.426 141.204 139.762 146.299 129.089C148.579 124.369 147.935 121.446 144.422 120.266C143.242 119.891 141.526 119.596 139.246 119.435C136.431 119.193 134.688 119.033 134.071 118.952C130.156 118.255 126.079 120.722 121.842 126.354C110.714 153.814 103.5 178.834 100.201 201.413C98.7802 211.228 99.3434 219.487 101.837 226.245C105.458 235.819 112.778 240.726 123.827 240.941C144.207 241.343 158.662 236.489 167.189 226.379C173.33 235.282 182.662 240.136 195.213 240.807C205.966 241.423 215.218 238.152 222.968 230.938C226.803 227.318 229.645 223.671 231.442 219.997C242.195 221.472 252.841 219.514 263.434 214.097C269.977 210.853 274.911 207.447 278.317 203.827C277.325 208.278 275.877 213.078 274.026 218.227C273.168 220.587 271.828 223.939 270.031 228.337C268.77 231.555 268.154 233.164 268.154 233.164L267.912 234.344C267.296 237.24 269.039 238.929 273.195 239.412C274.992 239.654 278.398 239.6 283.439 239.305C284.458 239.224 285.397 239.493 286.255 240.136C287.033 240.673 287.515 240.968 287.676 240.968C288.373 240.807 290.116 236.999 292.852 229.544C297.25 217.771 299.207 199.268 298.725 174.007C305.616 158.158 312.616 147.19 319.668 141.076C325.38 135.981 330.878 134.318 336.134 136.142C339.888 137.482 350.561 142.014 351.66 154.323C354.798 189.748 329.215 201.011 322.028 210.128C307.949 228.015 359.947 200.26 367.563 178.834C369.574 180.174 371.505 181.622 373.382 183.097C372.631 197.9 375.044 210.397 380.622 220.614C387.675 233.325 398.589 240.056 413.339 240.833C426.586 241.531 438.117 239.493 447.932 234.719C447.986 234.719 448.039 234.666 448.066 234.639C448.844 235.175 449.755 235.551 450.855 235.792C451.633 235.953 455.95 235.551 463.781 234.612C465.121 234.451 466.301 232.842 467.32 229.785C467.803 228.31 468.742 224.288 470.136 217.798C473.434 203.371 477.511 191.652 482.364 182.615C491.536 165.667 502.477 151.883 515.188 141.21C520.363 136.892 524.547 133.969 527.765 132.387C530.5 131.046 532.699 130.43 534.362 130.51L534.469 130.993C535.166 133.433 534.657 136.758 532.94 140.995C532.377 142.336 531.6 144.026 530.581 146.064C529.24 148.665 528.543 150.059 528.462 150.301C520.685 166.766 516.904 174.838 517.038 174.543C516.421 176.045 515.778 177.573 515.161 179.129C509.985 193.556 507.974 206.294 509.154 217.369C510.736 232.118 518.325 239.922 531.975 240.78C554.957 242.255 572.039 235.363 583.248 220.077C585.286 217.315 585.957 215.867 585.26 215.733L585.42 215.653ZM228.733 210.236C223.638 200.045 222.271 189.614 224.604 178.941C226.642 169.287 228.358 162.556 229.779 158.721C232.354 151.427 234.794 149.818 237.073 153.894C242.008 162.905 242.088 174.999 237.315 190.123C234.955 197.739 232.085 204.443 228.733 210.236ZM407.922 144.374C411.676 136.061 415.403 130.376 419.104 127.319C423.422 123.699 427.364 124.155 430.984 128.606C439.538 139.118 436.32 151.4 421.33 165.425C413.875 172.478 405.562 178.485 396.39 183.419C396.39 174.007 400.225 161.001 407.922 144.374Z" fill="#8DC63F"/>
<path d="M163.89 291.437H143.081V311.415H141.579V270.788H166.76V272.29H143.108V289.881H163.917V291.437H163.89Z" fill="black" stroke="black" stroke-width="0.996123"/>
<path d="M170.622 295.728C170.622 292.832 171.185 290.258 172.285 287.951C173.384 285.645 174.966 283.848 176.978 282.588C178.989 281.328 181.268 280.657 183.816 280.657C186.363 280.657 188.616 281.274 190.627 282.534C192.638 283.768 194.194 285.538 195.32 287.844C196.446 290.123 197.01 292.698 197.036 295.567V296.908C197.036 299.804 196.5 302.405 195.401 304.685C194.301 306.964 192.746 308.761 190.735 310.048C188.723 311.335 186.444 311.979 183.896 311.979C181.349 311.979 179.069 311.335 177.058 310.075C175.047 308.815 173.465 307.045 172.365 304.765C171.239 302.486 170.676 299.912 170.676 297.069V295.728H170.622ZM172.124 296.908C172.124 299.429 172.633 301.708 173.626 303.827C174.618 305.918 176.012 307.554 177.782 308.734C179.552 309.914 181.59 310.504 183.869 310.504C187.302 310.504 190.118 309.217 192.29 306.616C194.462 304.041 195.535 300.689 195.535 296.613V295.755C195.535 293.288 195.025 290.982 194.033 288.89C193.041 286.798 191.646 285.136 189.85 283.956C188.08 282.776 186.068 282.186 183.816 282.186C180.383 282.186 177.568 283.5 175.395 286.128C173.223 288.756 172.124 292.054 172.124 296.023V296.908Z" fill="black" stroke="black" stroke-width="0.996123"/>
<path d="M202.078 295.728C202.078 292.832 202.641 290.258 203.741 287.951C204.84 285.645 206.422 283.848 208.434 282.588C210.445 281.328 212.724 280.657 215.272 280.657C217.819 280.657 220.072 281.274 222.083 282.534C224.095 283.768 225.65 285.538 226.776 287.844C227.902 290.123 228.466 292.698 228.492 295.567V296.908C228.492 299.804 227.956 302.405 226.857 304.685C225.757 306.964 224.202 308.761 222.191 310.048C220.179 311.335 217.9 311.979 215.352 311.979C212.805 311.979 210.525 311.335 208.514 310.075C206.503 308.815 204.921 307.045 203.821 304.765C202.695 302.486 202.132 299.912 202.132 297.069V295.728H202.078ZM203.58 296.908C203.58 299.429 204.089 301.708 205.082 303.827C206.074 305.918 207.468 307.554 209.238 308.734C211.008 309.914 213.046 310.504 215.326 310.504C218.758 310.504 221.574 309.217 223.746 306.616C225.918 304.041 226.991 300.689 226.991 296.613V295.755C226.991 293.288 226.481 290.982 225.489 288.89C224.497 286.798 223.102 285.136 221.306 283.956C219.536 282.776 217.524 282.186 215.272 282.186C211.839 282.186 209.024 283.5 206.851 286.128C204.679 288.756 203.58 292.054 203.58 296.023V296.908Z" fill="black" stroke="black" stroke-width="0.996123"/>
<path d="M234.415 296.023C234.415 291.196 235.434 287.441 237.445 284.733C239.483 282.024 242.245 280.684 245.785 280.684C248.065 280.684 250.049 281.193 251.792 282.212C253.535 283.231 254.93 284.76 256.029 286.798V268.562H257.531V311.415H256.029V306.588C255.01 308.305 253.589 309.619 251.819 310.557C250.049 311.496 248.011 311.979 245.732 311.979C242.245 311.979 239.483 310.584 237.445 307.822C235.407 305.06 234.415 301.252 234.415 296.398V295.996V296.023ZM235.97 296.613C235.97 300.903 236.829 304.282 238.518 306.749C240.207 309.243 242.621 310.477 245.732 310.477C248.226 310.477 250.344 309.914 252.114 308.814C253.884 307.715 255.198 306.079 256.056 303.934V289.774C254.34 284.706 250.907 282.158 245.785 282.158C242.701 282.158 240.288 283.392 238.572 285.806C236.855 288.246 235.997 291.839 235.997 296.586L235.97 296.613Z" fill="black" stroke="black" stroke-width="0.996123"/>
<path d="M284.188 311.415H282.687V270.788H284.188V311.415Z" fill="black" stroke="black" stroke-width="0.996123"/>
<path d="M297.168 288.274C298.16 285.941 299.608 284.09 301.512 282.723C303.416 281.355 305.535 280.685 307.868 280.685C311.112 280.685 313.499 281.596 315.081 283.447C316.663 285.27 317.441 288.032 317.468 291.76V311.47H315.966V291.733C315.966 288.488 315.296 286.102 313.982 284.546C312.668 282.991 310.603 282.213 307.787 282.213C305.186 282.213 302.933 283.152 301.029 285.002C299.125 286.852 297.838 289.239 297.168 292.162V311.497H295.666V281.301H297.168V288.327V288.274Z" fill="black" stroke="black" stroke-width="0.996123"/>
<path d="M325.567 296.023C325.567 291.196 326.586 287.441 328.598 284.733C330.636 282.024 333.398 280.684 336.938 280.684C339.217 280.684 341.201 281.193 342.945 282.212C344.688 283.231 346.082 284.76 347.182 286.798V268.562H348.683V311.415H347.182V306.588C346.163 308.305 344.741 309.619 342.971 310.557C341.201 311.496 339.163 311.979 336.884 311.979C333.398 311.979 330.636 310.584 328.598 307.822C326.56 305.06 325.567 301.252 325.567 296.398V295.996V296.023ZM327.123 296.613C327.123 300.903 327.981 304.282 329.67 306.749C331.36 309.243 333.773 310.477 336.884 310.477C339.378 310.477 341.496 309.914 343.266 308.814C345.036 307.715 346.35 306.079 347.208 303.934V289.774C345.492 284.706 342.06 282.158 336.938 282.158C333.854 282.158 331.44 283.392 329.724 285.806C328.008 288.246 327.15 291.839 327.15 296.586L327.123 296.613Z" fill="black" stroke="black" stroke-width="0.996123"/>
<path d="M378.479 311.416V306.535C377.594 308.198 376.28 309.538 374.564 310.504C372.848 311.469 370.676 311.979 368.074 311.979C364.776 311.979 362.309 311.013 360.673 309.083C359.037 307.152 358.179 304.363 358.152 300.662V281.22H359.654V300.716C359.681 303.907 360.405 306.347 361.826 307.983C363.247 309.619 365.312 310.45 368.021 310.45C370.917 310.45 373.25 309.78 375.047 308.412C376.844 307.045 377.997 305.06 378.479 302.432V281.193H380.008V311.389H378.479V311.416Z" fill="black" stroke="black" stroke-width="0.996123"/>
<path d="M408.134 304.042C408.134 300.368 404.996 297.874 398.748 296.56C394.993 295.755 392.365 294.736 390.917 293.476C389.442 292.216 388.718 290.499 388.718 288.3C388.718 286.102 389.657 284.278 391.534 282.83C393.411 281.382 395.825 280.685 398.828 280.685C402.073 280.685 404.701 281.462 406.659 283.018C408.616 284.573 409.608 286.665 409.608 289.319H408.08C408.08 287.281 407.222 285.592 405.506 284.251C403.789 282.884 401.563 282.213 398.801 282.213C396.039 282.213 394.055 282.803 392.526 283.956C390.971 285.109 390.22 286.557 390.22 288.274C390.22 289.641 390.515 290.687 391.078 291.465C391.641 292.243 392.607 292.94 393.894 293.557C395.181 294.173 397.085 294.79 399.579 295.353C402.073 295.943 404.057 296.614 405.506 297.391C406.954 298.169 407.999 299.108 408.67 300.18C409.313 301.253 409.635 302.567 409.635 304.095C409.635 306.482 408.67 308.386 406.712 309.834C404.755 311.282 402.207 312.006 399.043 312.006C395.664 312.006 392.929 311.229 390.864 309.7C388.799 308.172 387.753 306.187 387.753 303.774H389.255C389.416 305.892 390.327 307.555 392.07 308.735C393.813 309.915 396.12 310.505 399.07 310.505C401.778 310.505 403.95 309.888 405.64 308.627C407.329 307.367 408.16 305.838 408.16 304.069L408.134 304.042Z" fill="black" stroke="black" stroke-width="0.996123"/>
<path d="M421.328 273.095V281.247H428.193V282.749H421.328V304.202C421.328 306.347 421.676 307.929 422.373 308.948C423.071 309.967 424.251 310.477 425.886 310.477C426.718 310.477 427.71 310.397 428.863 310.236L429.104 311.657C428.488 311.871 427.442 311.979 425.94 311.979C423.741 311.979 422.186 311.362 421.22 310.155C420.282 308.948 419.799 307.018 419.772 304.39V282.749H414.194V281.247H419.772V273.095H421.301H421.328Z" fill="black" stroke="black" stroke-width="0.996123"/>
<path d="M449.35 282.347L447.392 282.186C444.818 282.186 442.672 283.017 440.956 284.68C439.24 286.342 438.087 288.675 437.551 291.652V311.416H436.049V281.22H437.551V287.495C438.382 285.404 439.589 283.714 441.224 282.508C442.86 281.301 444.925 280.657 447.392 280.657C448.277 280.657 448.974 280.764 449.511 280.979L449.35 282.347Z" fill="black" stroke="black" stroke-width="0.996123"/>
<path d="M464.907 309.083L465.094 308.519L475.526 281.22H477.189L463.673 316.672L463.003 318.334C461.555 321.847 459.141 323.617 455.816 323.617C454.743 323.617 453.992 323.51 453.59 323.295V321.847C454.153 322.008 454.824 322.089 455.601 322.089C457.183 322.089 458.497 321.633 459.543 320.721C460.589 319.809 461.474 318.308 462.252 316.216L464.102 311.228L452.062 281.193H453.697L464.88 309.056L464.907 309.083Z" fill="black" stroke="black" stroke-width="0.996123"/>
</svg>
